<?xml version="1.0" encoding="utf-8"?>
<!-- Generator: $$$/GeneralStr/196=Adobe Illustrator 27.6.0, SVG Export Plug-In . SVG Version: 6.00 Build 0)  -->
<svg version="1.1" id="Calque_1" xmlns="http://www.w3.org/2000/svg" xmlns:xlink="http://www.w3.org/1999/xlink" x="0px" y="0px"
	 viewBox="0 0 50 50" style="enable-background:new 0 0 50 50;" xml:space="preserve">
<g>
	<path d="M27.7,20.9c-4-3-3.9-2.9-3.9-3.7v-0.1c0.3-0.4,0.5-0.9,0.5-1.7c0-1.8-1-4.1-2.2-4.1S20,13.6,20,15.4c0,0.8,0.2,1.3,0.5,1.7
		v0.1c0,1.4-0.6,0.8-4.2,3.8C17.9,21.6,21.8,22.8,27.7,20.9z"/>
	<path d="M48.6,20.6c-0.9,0-1.8-0.1-2.6-0.5C45.9,20,45.7,20,45.5,20c0,0-5.6,1.4-7.9,2.5c0,0-5,2.3-8.6-0.5c-4.3,1.5-10,2.2-14,0
		c-1.3,1.1-2.5,2.2-2.8,2.6c0,0.1,0,0.1-0.1,0.2c-0.3-0.5-0.6-1.4-0.5-2.5c0,0,0.1-2.3-2.4-2.8c-5.3-1-9.8,1.5-7.8,4.5
		c0.5,0.7,1.2,1.2,1.9,1.4c1.5,0.5,4.4,1.5,5.4,2.1c-0.1,0-0.8,0-1.1,0.7c-0.8,1.7,2.2,2.6,3.1,1.7c0.2-0.3,0.6-0.4,1.1-0.2
		c0.4,0.8,1.2,1.7,2.4,2.5c0,0,1.4,1.2,4.1,1.8c0.8,0.2,0.9,0.2,0,0c-0.7,0.5-1.5,1.3-1.8,1.7c-0.5,0.8-1.7,2.5,5.6,3
		c7.3-0.5,6-2.3,5.6-3c-0.3-0.5-1.4-1.4-2.1-1.9c-0.1,0-0.2,0.1-0.2,0.1c-2.5,0.6-3.4,0.8,0,0c0,0,0.1,0,0.2-0.1
		c9.1-2.5,16-10.2,20.8-11.4c1.5-0.4,2.2-0.7,2.5-1.1C49,21.2,49,21.1,49,21C49.1,20.9,48.9,20.6,48.6,20.6z M4.8,23.2
		c-1.1-1.1,0.7-3.3,2.9-0.9c0.7,0.8,2.7,2.7,2.8,3.9C10.5,27.4,5.8,24,4.8,23.2z"/>
</g>
</svg>
